<svg xmlns="http://www.w3.org/2000/svg" width="446" height="90" viewBox="-2.60 -80.00 445.60 90.20"><path fill="currentColor" d="M30.5 1.2000000000000002Q22.8 1.2000000000000002 17.6 -1.25Q12.4 -3.7 9.65 -7.75Q6.9 -11.8 6.4 -16.8L19.8 -17.400000000000002Q20.700000000000003 -14.100000000000001 23.200000000000003 -12.150000000000002Q25.700000000000003 -10.200000000000001 30.6 -10.200000000000001Q35.300000000000004 -10.200000000000001 37.5 -11.3Q39.7 -12.4 39.7 -14.600000000000001Q39.7 -16.2 38.900000000000006 -17.15Q38.1 -18.1 35.900000000000006 -18.950000000000003Q33.7 -19.8 29.3 -20.6Q21.200000000000003 -22.3 16.450000000000003 -24.450000000000003Q11.700000000000001 -26.6 9.65 -29.85Q7.6000000000000005 -33.1 7.6000000000000005 -38.0Q7.6000000000000005 -42.6 10.0 -46.400000000000006Q12.4 -50.2 17.3 -52.5Q22.200000000000003 -54.800000000000004 29.6 -54.800000000000004Q37.6 -54.800000000000004 42.55 -52.2Q47.5 -49.6 50.0 -45.5Q52.5 -41.400000000000006 53.2 -36.800000000000004L39.7 -36.2Q39.300000000000004 -38.400000000000006 38.0 -40.0Q36.7 -41.6 34.6 -42.5Q32.5 -43.400000000000006 29.6 -43.400000000000006Q25.3 -43.400000000000006 23.4 -41.75Q21.5 -40.1 21.5 -38.0Q21.5 -36.1 22.5 -34.900000000000006Q23.5 -33.7 26.15 -32.800000000000004Q28.8 -31.900000000000002 33.6 -30.900000000000002Q41.400000000000006 -29.400000000000002 45.7 -27.35Q50.0 -25.3 51.8 -22.35Q53.6 -19.400000000000002 53.6 -14.9Q53.6 -9.9 50.85 -6.300000000000001Q48.1 -2.7 42.95 -0.75Q37.800000000000004 1.2000000000000002 30.5 1.2000000000000002Z M97.30000000000001 0.0Q88.3 0.0 84.05 -4.1000000000000005Q79.8 -8.200000000000001 79.8 -16.8V-66.2H93.4V-18.1Q93.4 -14.4 95.15 -12.600000000000001Q96.9 -10.8 100.6 -10.8H113.2V0.0ZM64.4 -42.800000000000004V-53.6H113.2V-42.800000000000004Z M150.4 1.2000000000000002Q142.9 1.2000000000000002 137.15 -2.25Q131.4 -5.7 128.15 -12.0Q124.9 -18.3 124.9 -26.8Q124.9 -35.1 128.10000000000002 -41.400000000000006Q131.3 -47.7 137.0 -51.25Q142.7 -54.800000000000004 150.2 -54.800000000000004Q157.6 -54.800000000000004 163.25 -51.300000000000004Q168.9 -47.800000000000004 172.10000000000002 -41.45Q175.3 -35.1 175.3 -26.5V-23.1H138.9Q139.4 -17.1 142.55 -13.950000000000001Q145.7 -10.8 150.7 -10.8Q154.4 -10.8 157.0 -12.55Q159.6 -14.3 160.6 -17.3L174.2 -16.400000000000002Q171.5 -8.0 165.45 -3.4Q159.4 1.2000000000000002 150.4 1.2000000000000002ZM139.1 -32.4H160.8Q160.3 -37.6 157.4 -40.2Q154.5 -42.800000000000004 150.1 -42.800000000000004Q145.5 -42.800000000000004 142.65 -40.150000000000006Q139.8 -37.5 139.1 -32.4Z M204.6 0.0V-54.0Q204.6 -57.1 203.0 -58.650000000000006Q201.4 -60.2 198.4 -60.2H186.8V-71.0H200.8Q209.5 -71.0 213.85 -66.65Q218.2 -62.300000000000004 218.2 -53.7V0.0ZM184.8 0.0V-10.8H235.2V0.0Z M264.6 0.0V-54.0Q264.6 -57.1 263.0 -58.650000000000006Q261.4 -60.2 258.4 -60.2H246.8V-71.0H260.8Q269.5 -71.0 273.85 -66.65Q278.2 -62.300000000000004 278.2 -53.7V0.0ZM244.8 0.0V-10.8H295.2V0.0Z M322.4 1.2000000000000002Q317.5 1.2000000000000002 313.4 -0.6000000000000001Q309.3 -2.4000000000000004 306.95000000000005 -5.800000000000001Q304.6 -9.200000000000001 304.6 -13.9Q304.6 -20.700000000000003 308.95000000000005 -24.5Q313.3 -28.3 320.9 -29.900000000000002L337.0 -33.4Q337.0 -38.5 334.95 -41.2Q332.9 -43.900000000000006 328.3 -43.900000000000006Q324.3 -43.900000000000006 322.1 -41.900000000000006Q319.9 -39.900000000000006 319.2 -36.6L305.2 -37.4Q306.7 -45.300000000000004 312.75 -50.050000000000004Q318.8 -54.800000000000004 328.1 -54.800000000000004Q339.7 -54.800000000000004 345.15 -48.95Q350.6 -43.1 350.6 -32.6V-13.700000000000001Q350.6 -11.700000000000001 351.3 -10.950000000000001Q352.0 -10.200000000000001 353.4 -10.200000000000001H355.6V0.0Q355.0 0.1 353.6 0.25Q352.2 0.4 350.7 0.4Q346.7 0.4 343.9 -1.0000000000000002Q341.1 -2.4000000000000004 339.65 -5.1000000000000005Q338.2 -7.800000000000001 338.0 -11.600000000000001H339.5Q339.0 -8.0 336.8 -5.05Q334.6 -2.1 330.9 -0.44999999999999996Q327.2 1.2000000000000002 322.4 1.2000000000000002ZM325.2 -9.0Q329.0 -9.0 331.6 -10.350000000000001Q334.2 -11.700000000000001 335.6 -14.350000000000001Q337.0 -17.0 337.0 -20.6V-23.8L325.1 -21.200000000000003Q321.5 -20.400000000000002 320.0 -18.900000000000002Q318.5 -17.400000000000002 318.5 -14.600000000000001Q318.5 -12.0 320.2 -10.5Q321.9 -9.0 325.2 -9.0Z"/><rect fill="currentColor" x="378.00" y="-71.00" width="56.00" height="71.00" rx="3.40"/></svg>